<?xml version="1.0" encoding="UTF-8" standalone="no"?>
<!DOCTYPE svg PUBLIC "-//W3C//DTD SVG 1.1//EN"
 "http://www.w3.org/Graphics/SVG/1.1/DTD/svg11.dtd">
<!-- Generated by graphviz version 2.36.0 (20140111.2315)
 -->
<!-- Title: G Pages: 1 -->
<svg width="959pt" height="579pt"
 viewBox="0.00 0.00 959.10 579.02" xmlns="http://www.w3.org/2000/svg" xmlns:xlink="http://www.w3.org/1999/xlink">
<g id="graph0" class="graph" transform="scale(1 1) rotate(0) translate(4 575.023)">
<title>G</title>
<polygon fill="white" stroke="none" points="-4,4 -4,-575.023 955.096,-575.023 955.096,4 -4,4"/>
<!-- Organization -->
<g id="Organization" class="node"><title>Organization</title>
<g id="a_Organization_0"><a xlink:title="&lt;p&gt;Dieser Objekttyp dient dazu, Gruppierungen von Personen abzubilden, die in der parlamentarischen Arbeit eine Rolle spielen. Dazu zählen in der Praxis insbesondere Fraktionen und Gremien.&lt;a href=&quot;#fn1&quot; class=&quot;footnoteRef&quot; id=&quot;fnref1&quot;&gt;&lt;sup&gt;1&lt;/sup&gt;&lt;/a&gt;&lt;/p&gt; &lt;div class=&quot;footnotes&quot;&gt; &lt;hr /&gt; &lt;ol&gt; &lt;li id=&quot;fn1&quot;&gt;&lt;p&gt;Ein Teil der Eigenschaften ist der &quot;Organization&quot; Ontologie (kurz: &lt;code&gt;org:Organization&lt;/code&gt;) des W3C entnommen. Quelle: The Organization Ontology, W3C Recommendation 16 January 2014, &lt;a href=&quot;http://www.w3.org/TR/vocab&#45;org/&quot; class=&quot;uri&quot;&gt;http://www.w3.org/TR/vocab&#45;org/&lt;/a&gt;. Deren Bezeichnungen wurden deshalb beibehalten. Das betrifft z.B. die Verwendung von &lt;code&gt;classification&lt;/code&gt;.&lt;a href=&quot;#fnref1&quot;&gt;↩&lt;/a&gt;&lt;/p&gt;&lt;/li&gt; &lt;/ol&gt; &lt;/div&gt; ">
<text text-anchor="start" x="317.085" y="-478.329" font-family="didot" font-size="12.00">Organization</text>
</a>
</g>
<g id="a_Organization_1"><a xlink:title="Typ: string &#160;&#160;&#160;Referenz auf Body (n:1)&lt;p&gt;Körperschaft, zu der diese Gruppierung gehört.&lt;/p&gt; ">
<polygon fill="#ffffff" stroke="none" points="312.585,-457.429 312.585,-470.429 396.585,-470.429 396.585,-457.429 312.585,-457.429"/>
<text text-anchor="start" x="343.585" y="-462.029" font-family="Verdana" font-size="8.00" fill="#337ab7">body</text>
</a>
</g>
<g id="a_Organization_2"><a xlink:title="Typ: string&lt;p&gt;Offizielle (lange) Form des Namens der Gruppierung.&lt;/p&gt; ">
<polygon fill="#ffffff" stroke="none" points="312.585,-442.429 312.585,-455.429 396.585,-455.429 396.585,-442.429 312.585,-442.429"/>
<text text-anchor="start" x="342.085" y="-447.029" font-family="Verdana" font-size="8.00">name</text>
</a>
</g>
<g id="a_Organization_3"><a xlink:title="Typ: array &#160;&#160;&#160;Referenz auf Membership (1:n)&lt;p&gt;Mitgliedschaften dieser Gruppierung.&lt;/p&gt; ">
<polygon fill="#ffffff" stroke="none" points="312.585,-427.429 312.585,-440.429 396.585,-440.429 396.585,-427.429 312.585,-427.429"/>
<text text-anchor="start" x="327.585" y="-432.029" font-family="Verdana" font-size="8.00" fill="#337ab7">membership</text>
</a>
</g>
<g id="a_Organization_4"><a xlink:title="Typ: array &#160;&#160;&#160;Referenz auf Meeting (n:m)&lt;p&gt;Sitzungen dieser Gruppierung. Invers zur Eigenschaft &lt;code&gt;organization&lt;/code&gt; der Klasse &lt;code&gt;oparl:Meeting&lt;/code&gt;. Da die Anzahl der Sitzungen stetig wachsen kann, wird EMPFOHLEN, die Liste über eine eigene URL verfügbar zu machen und damit Paginierung sowie die Filterung mittels startDate und endDate Parametern zu ermöglichen. Siehe dazu auch &lt;a href=&quot;#objektlisten&quot;&gt;Objektlisten&lt;/a&gt;.&lt;/p&gt; ">
<polygon fill="#ffffff" stroke="none" points="312.585,-412.429 312.585,-425.429 396.585,-425.429 396.585,-412.429 312.585,-412.429"/>
<text text-anchor="start" x="337.085" y="-417.029" font-family="Verdana" font-size="8.00" fill="#337ab7">meeting</text>
</a>
</g>
<g id="a_Organization_5"><a xlink:title="Typ: string&lt;p&gt;Der Name der Gruppierung als Kurzform.&lt;/p&gt; ">
<polygon fill="#e5e2eb" stroke="none" points="312.585,-397.429 312.585,-410.429 396.585,-410.429 396.585,-397.429 312.585,-397.429"/>
<text text-anchor="start" x="331.085" y="-402.029" font-family="Verdana" font-size="8.00">shortName</text>
</a>
</g>
<g id="a_Organization_6"><a xlink:title="Typ: array&lt;p&gt;Positionen, die für diese Gruppierung vorgesehen sind. Die Strings SOLLEN sowohl die männliche als auch die weibliche Form enthalten, und zwar in dem Muster &quot;männliche Form | weibliche Form&quot; (genau in der Reihenfolge mit einem Leerzeichen vor und nach dem &quot;|&quot;). Wenn sich beide Formen nicht unterscheiden, dann DARF die Form nur einmal verwendet werden: &quot;Mitglied&quot; und nicht &quot;Mitglied | Mitglied&quot;. Weitere Beispiele: &quot;Vorsitzender | Vorsitzende&quot;, &quot;1. Stellvertreter | 1. Stellvertreterin&quot;, &quot;2. Stellvertreter | 2. Stellvertreterin&quot;, &quot;Schriftführer | Schriftführerin&quot;, &quot;Stellvertretender Schriftführer | Stellvertretende Schriftführerin&lt;/p&gt; ">
<polygon fill="#e5e2eb" stroke="none" points="312.585,-382.429 312.585,-395.429 396.585,-395.429 396.585,-382.429 312.585,-382.429"/>
<text text-anchor="start" x="345.085" y="-387.029" font-family="Verdana" font-size="8.00">post</text>
</a>
</g>
<g id="a_Organization_7"><a xlink:title="Typ: string &#160;&#160;&#160;Referenz auf Organization (n:1)&lt;p&gt;Ggf. URL der übergeordneten Gruppierung.&lt;/p&gt; ">
<polygon fill="#e5e2eb" stroke="none" points="312.585,-367.429 312.585,-380.429 396.585,-380.429 396.585,-367.429 312.585,-367.429"/>
<text text-anchor="start" x="315.085" y="-372.029" font-family="Verdana" font-size="8.00" fill="#337ab7">subOrganizationOf</text>
</a>
</g>
<g id="a_Organization_8"><a xlink:title="Typ: string&lt;p&gt;Die Art der Gruppierung. In Frage kommen z.B. &quot;Rat&quot;, &quot;Hauptausschuss&quot;, &quot;Ausschuss&quot;, &quot;Beirat&quot;, &quot;Projektbeirat&quot;, &quot;Kommission&quot;, &quot;AG&quot;, &quot;Verwaltungsrat&quot;. Die Angabe soll möglichst präzise erfolgen.&lt;/p&gt; ">
<polygon fill="#ffffff" stroke="none" points="312.585,-352.429 312.585,-365.429 396.585,-365.429 396.585,-352.429 312.585,-352.429"/>
<text text-anchor="start" x="327.085" y="-357.029" font-family="Verdana" font-size="8.00">classification</text>
</a>
</g>
<g id="a_Organization_9"><a xlink:title="Typ: string&lt;p&gt;Gründungsdatum der Gruppierung. Kann z. B. das Datum der konstituierenden Sitzung sein.&lt;/p&gt; ">
<polygon fill="#ffffff" stroke="none" points="312.585,-337.429 312.585,-350.429 396.585,-350.429 396.585,-337.429 312.585,-337.429"/>
<text text-anchor="start" x="334.585" y="-342.029" font-family="Verdana" font-size="8.00">startDate</text>
</a>
</g>
<g id="a_Organization_10"><a xlink:title="Typ: string&lt;p&gt;Datum des letzten Tages der Existenz der Gruppierung.&lt;/p&gt; ">
<polygon fill="#e5e2eb" stroke="none" points="312.585,-322.429 312.585,-335.429 396.585,-335.429 396.585,-322.429 312.585,-322.429"/>
<text text-anchor="start" x="336.085" y="-327.029" font-family="Verdana" font-size="8.00">endDate</text>
</a>
</g>
<g id="a_Organization_11"><a xlink:title="Typ: string&lt;p&gt;Allgemeine Website der Gruppierung.&lt;/p&gt; ">
<polygon fill="#e5e2eb" stroke="none" points="312.585,-307.429 312.585,-320.429 396.585,-320.429 396.585,-307.429 312.585,-307.429"/>
<text text-anchor="start" x="338.085" y="-312.029" font-family="Verdana" font-size="8.00">website</text>
</a>
</g>
<polygon fill="none" stroke="black" points="309.585,-304.929 309.585,-493.929 399.585,-493.929 399.585,-304.929 309.585,-304.929"/>
</g>
<!-- Organization&#45;&gt;Organization -->
<g id="Organization&#45;Organization" class="edge"><title>Organization:subOrganizationOf&#45;&gt;Organization</title>
<path fill="none" stroke="black" d="M396.585,-373.429C412.252,-366.429 421.585,-366.429 421.585,-386.429 421.585,-390.428 419.799,-393.628 416.763,-396.132"/>
<polygon fill="black" stroke="black" points="414.989,-393.107 407.662,-400.76 418.162,-399.347 414.989,-393.107"/>
</g>
<!-- Person -->
<g id="Person" class="node"><title>Person</title>
<g id="a_Person_12"><a xlink:title="&lt;p&gt;Jede natürliche Person, die in der parlamentarischen Arbeit tätig und insbesondere Mitglied in einer Gruppierung (&lt;a href=&quot;#oparl_organization&quot;&gt;oparl:Organization&lt;/a&gt;) ist, wird mit einem Objekt vom Typ &lt;code&gt;oparl:Person&lt;/code&gt; abgebildet.&lt;/p&gt; ">
<text text-anchor="start" x="884.596" y="-551.923" font-family="didot" font-size="12.00">Person</text>
</a>
</g>
<g id="a_Person_13"><a xlink:title="Typ: string &#160;&#160;&#160;Referenz auf Body (n:1)&lt;p&gt;Körperschaft, zu der die Person gehört.&lt;/p&gt; ">
<polygon fill="#ffffff" stroke="none" points="870.096,-531.023 870.096,-544.023 940.096,-544.023 940.096,-531.023 870.096,-531.023"/>
<text text-anchor="start" x="894.096" y="-535.623" font-family="Verdana" font-size="8.00" fill="#337ab7">body</text>
</a>
</g>
<g id="a_Person_14"><a xlink:title="Typ: string&lt;p&gt;Der vollständige Name der Person mit akademischem Grad und dem gebräuchlichen Vornamen, wie er zur Anzeige durch den Client genutzt werden kann.&lt;/p&gt; ">
<polygon fill="#ffffff" stroke="none" points="870.096,-516.023 870.096,-529.023 940.096,-529.023 940.096,-516.023 870.096,-516.023"/>
<text text-anchor="start" x="892.596" y="-520.623" font-family="Verdana" font-size="8.00">name</text>
</a>
</g>
<g id="a_Person_15"><a xlink:title="Typ: string&lt;p&gt;Familienname bzw. Nachname.&lt;/p&gt; ">
<polygon fill="#e5e2eb" stroke="none" points="870.096,-501.023 870.096,-514.023 940.096,-514.023 940.096,-501.023 870.096,-501.023"/>
<text text-anchor="start" x="879.096" y="-505.623" font-family="Verdana" font-size="8.00">familyName</text>
</a>
</g>
<g id="a_Person_16"><a xlink:title="Typ: string&lt;p&gt;Vorname bzw. Taufname.&lt;/p&gt; ">
<polygon fill="#e5e2eb" stroke="none" points="870.096,-486.023 870.096,-499.023 940.096,-499.023 940.096,-486.023 870.096,-486.023"/>
<text text-anchor="start" x="880.596" y="-490.623" font-family="Verdana" font-size="8.00">givenName</text>
</a>
</g>
<g id="a_Person_17"><a xlink:title="Typ: string&lt;p&gt;Anrede. Der String SOLL sowohl die männliche als auch die weibliche Bezeichnung enthalten. Beispiele: &quot;Herr | Frau&quot;, &quot;Ratsherr | Ratsfrau&quot;.&lt;/p&gt; ">
<polygon fill="#e5e2eb" stroke="none" points="870.096,-471.023 870.096,-484.023 940.096,-484.023 940.096,-471.023 870.096,-471.023"/>
<text text-anchor="start" x="872.596" y="-475.623" font-family="Verdana" font-size="8.00">formOfAddress</text>
</a>
</g>
<g id="a_Person_18"><a xlink:title="Typ: array&lt;p&gt;Akademische(r) Titel.&lt;/p&gt; ">
<polygon fill="#e5e2eb" stroke="none" points="870.096,-456.023 870.096,-469.023 940.096,-469.023 940.096,-456.023 870.096,-456.023"/>
<text text-anchor="start" x="897.096" y="-460.623" font-family="Verdana" font-size="8.00">title</text>
</a>
</g>
<g id="a_Person_19"><a xlink:title="Typ: string&lt;p&gt;Geschlecht. Empfohlene Werte sind &lt;code&gt;female&lt;/code&gt;, &lt;code&gt;male&lt;/code&gt;, &lt;code&gt;none&lt;/code&gt; und &lt;code&gt;other&lt;/code&gt;. Für den Fall, dass das Geschlecht der Person unbekannt ist, SOLL die Eigenschaft nicht ausgegeben werden.&lt;/p&gt; ">
<polygon fill="#e5e2eb" stroke="none" points="870.096,-441.023 870.096,-454.023 940.096,-454.023 940.096,-441.023 870.096,-441.023"/>
<text text-anchor="start" x="889.596" y="-445.623" font-family="Verdana" font-size="8.00">gender</text>
</a>
</g>
<g id="a_Person_20"><a xlink:title="Typ: string&lt;p&gt;Telefonnummer der Person.&lt;/p&gt; ">
<polygon fill="#e5e2eb" stroke="none" points="870.096,-426.023 870.096,-439.023 940.096,-439.023 940.096,-426.023 870.096,-426.023"/>
<text text-anchor="start" x="891.596" y="-430.623" font-family="Verdana" font-size="8.00">phone</text>
</a>
</g>
<g id="a_Person_21"><a xlink:title="Typ: string&lt;p&gt;E&#45;Mail&#45;Adresse der Person.&lt;/p&gt; ">
<polygon fill="#e5e2eb" stroke="none" points="870.096,-411.023 870.096,-424.023 940.096,-424.023 940.096,-411.023 870.096,-411.023"/>
<text text-anchor="start" x="893.096" y="-415.623" font-family="Verdana" font-size="8.00">email</text>
</a>
</g>
<g id="a_Person_22"><a xlink:title="Typ: string&lt;p&gt;Straße und Hausnummer der Kontakt&#45;Anschrift der Person.&lt;/p&gt; ">
<polygon fill="#e5e2eb" stroke="none" points="870.096,-396.023 870.096,-409.023 940.096,-409.023 940.096,-396.023 870.096,-396.023"/>
<text text-anchor="start" x="875.096" y="-400.623" font-family="Verdana" font-size="8.00">streetAddress</text>
</a>
</g>
<g id="a_Person_23"><a xlink:title="Typ: string&lt;p&gt;Postleitzahl der Kontakt&#45;Anschrift der Person.&lt;/p&gt; ">
<polygon fill="#e5e2eb" stroke="none" points="870.096,-381.023 870.096,-394.023 940.096,-394.023 940.096,-381.023 870.096,-381.023"/>
<text text-anchor="start" x="880.596" y="-385.623" font-family="Verdana" font-size="8.00">postalCode</text>
</a>
</g>
<g id="a_Person_24"><a xlink:title="Typ: string&lt;p&gt;Ortsangabe der Kontakt&#45;Anschrift der Person.&lt;/p&gt; ">
<polygon fill="#e5e2eb" stroke="none" points="870.096,-366.023 870.096,-379.023 940.096,-379.023 940.096,-366.023 870.096,-366.023"/>
<text text-anchor="start" x="889.596" y="-370.623" font-family="Verdana" font-size="8.00">locality</text>
</a>
</g>
<g id="a_Person_25"><a xlink:title="Typ: array&lt;p&gt;Status. Die Strings SOLLEN sowohl die männliche als auch die weibliche Form enthalten, und zwar in dem Muster &quot;männliche Form | weibliche Form&quot; (genau in der Reihenfolge mit einem Leerzeichen vor und nach dem &quot;|&quot;). Wenn sich beide Formen nicht unterscheiden, dann DARF die Form nur einmal verwendet werden: &quot;Ratsmitglied&quot; und nicht &quot;Ratsmitglied | Ratsmitglied&quot;. Dadurch kann auch solche Software einen sinnvollen Text anzeigen, die keine Fall&#45;Unterscheidung nach Geschlecht der Personen vornimmt. Weitere Beispiele: &quot;Bürgermeister | Bürgermeisterin&quot;, &quot;Bezirksbürgermeister | Bezirksbürgermeisterin&quot;, &quot;Stadtverordneter | Stadtverordnete&quot;, &quot;Bezirksverordneter | Bezirksverordnete&quot;, &quot;Sachkundiger Bürger | Sachkundige Bürgerin&quot;, &quot;Einzelstadtverordneter | Einzelstadtverordnete&quot; (Mitglieder des Rates die keiner Fraktion/Organisation angehören).&lt;/p&gt; ">
<polygon fill="#e5e2eb" stroke="none" points="870.096,-351.023 870.096,-364.023 940.096,-364.023 940.096,-351.023 870.096,-351.023"/>
<text text-anchor="start" x="892.096" y="-355.623" font-family="Verdana" font-size="8.00">status</text>
</a>
</g>
<g id="a_Person_26"><a xlink:title="Typ: array &#160;&#160;&#160;Referenz auf Membership (1:n)&lt;p&gt;Mitgliedschaften der Person in Gruppierungen, z. B. Gremien und Fraktionen.&lt;/p&gt; ">
<polygon fill="#e5e2eb" stroke="none" points="870.096,-336.023 870.096,-349.023 940.096,-349.023 940.096,-336.023 870.096,-336.023"/>
<text text-anchor="start" x="878.096" y="-340.623" font-family="Verdana" font-size="8.00" fill="#337ab7">membership</text>
</a>
</g>
<polygon fill="none" stroke="black" points="867.096,-333.023 867.096,-567.023 943.096,-567.023 943.096,-333.023 867.096,-333.023"/>
</g>
<!-- Meeting -->
<g id="Meeting" class="node"><title>Meeting</title>
<g id="a_Meeting_27"><a xlink:title="&lt;p&gt;Eine Sitzung ist die Versammlung einer oder mehrerer Gruppierungen (oparl:Organization) zu einem bestimmten Zeitpunkt an einem bestimmten Ort.&lt;/p&gt; &lt;p&gt;Die geladenen Teilnehmer der Sitzung sind jeweils als Objekte vom Typ oparl:Person in entsprechender Form referenziert. Verschiedene Dateien (Einladung, Ergebnis&#45; und Wortprotokoll, sonstige Anlagen) können referenziert werden.&lt;/p&gt; &lt;p&gt;Die Inhalte einer Sitzung werden durch Tagesordnungspunkte (oparl:AgendaItem) abgebildet.&lt;/p&gt; ">
<text text-anchor="start" x="576.812" y="-550.936" font-family="didot" font-size="12.00">Meeting</text>
</a>
</g>
<g id="a_Meeting_28"><a xlink:title="Typ: string&lt;p&gt;Name der Sitzung.&lt;/p&gt; ">
<polygon fill="#ffffff" stroke="none" points="560.812,-530.036 560.812,-543.036 638.812,-543.036 638.812,-530.036 560.812,-530.036"/>
<text text-anchor="start" x="587.312" y="-534.636" font-family="Verdana" font-size="8.00">name</text>
</a>
</g>
<g id="a_Meeting_29"><a xlink:title="Typ: string&lt;p&gt;Datum und Uhrzeit des Anfangszeitpunkts der Sitzung. Bei einer zukünftigen Sitzung ist dies der geplante Zeitpunkt, bei einer stattgefundenen KANN es der tatsächliche Startzeitpunkt sein.&lt;/p&gt; ">
<polygon fill="#ffffff" stroke="none" points="560.812,-515.036 560.812,-528.036 638.812,-528.036 638.812,-515.036 560.812,-515.036"/>
<text text-anchor="start" x="589.812" y="-519.636" font-family="Verdana" font-size="8.00">start</text>
</a>
</g>
<g id="a_Meeting_30"><a xlink:title="Typ: string&lt;p&gt;Endzeitpunkt der Sitzung als Datum/Uhrzeit. Bei einer zukünftigen Sitzung ist dies der geplante Zeitpunkt, bei einer stattgefundenen KANN es der tatsächliche Endzeitpunkt sein.&lt;/p&gt; ">
<polygon fill="#ffffff" stroke="none" points="560.812,-500.036 560.812,-513.036 638.812,-513.036 638.812,-500.036 560.812,-500.036"/>
<text text-anchor="start" x="591.812" y="-504.636" font-family="Verdana" font-size="8.00">end</text>
</a>
</g>
<g id="a_Meeting_31"><a xlink:title="Typ: string&lt;p&gt;Raum, in dem die Sitzung stattfindet.&lt;/p&gt; ">
<polygon fill="#e5e2eb" stroke="none" points="560.812,-485.036 560.812,-498.036 638.812,-498.036 638.812,-485.036 560.812,-485.036"/>
<text text-anchor="start" x="588.312" y="-489.636" font-family="Verdana" font-size="8.00">room</text>
</a>
</g>
<g id="a_Meeting_32"><a xlink:title="Typ: string&lt;p&gt;Straße und Hausnummer des Sitzungsortes.&lt;/p&gt; ">
<polygon fill="#e5e2eb" stroke="none" points="560.812,-470.036 560.812,-483.036 638.812,-483.036 638.812,-470.036 560.812,-470.036"/>
<text text-anchor="start" x="569.812" y="-474.636" font-family="Verdana" font-size="8.00">streetAddress</text>
</a>
</g>
<g id="a_Meeting_33"><a xlink:title="Typ: string&lt;p&gt;Postleitzahl des Sitzungsortes.&lt;/p&gt; ">
<polygon fill="#e5e2eb" stroke="none" points="560.812,-455.036 560.812,-468.036 638.812,-468.036 638.812,-455.036 560.812,-455.036"/>
<text text-anchor="start" x="575.312" y="-459.636" font-family="Verdana" font-size="8.00">postalCode</text>
</a>
</g>
<g id="a_Meeting_34"><a xlink:title="Typ: string&lt;p&gt;Ortsangabe des Sitzungsortes.&lt;/p&gt; ">
<polygon fill="#e5e2eb" stroke="none" points="560.812,-440.036 560.812,-453.036 638.812,-453.036 638.812,-440.036 560.812,-440.036"/>
<text text-anchor="start" x="584.312" y="-444.636" font-family="Verdana" font-size="8.00">locality</text>
</a>
</g>
<g id="a_Meeting_35"><a xlink:title="Typ: string &#160;&#160;&#160;Referenz auf Location (n:1)&lt;p&gt;Sitzungsort in Form von Geodaten.&lt;/p&gt; ">
<polygon fill="#e5e2eb" stroke="none" points="560.812,-425.036 560.812,-438.036 638.812,-438.036 638.812,-425.036 560.812,-425.036"/>
<text text-anchor="start" x="582.812" y="-429.636" font-family="Verdana" font-size="8.00" fill="#337ab7">location</text>
</a>
</g>
<g id="a_Meeting_36"><a xlink:title="Typ: array &#160;&#160;&#160;Referenz auf Organization (n:m)&lt;p&gt;Gruppierungen, denen die Sitzung zugeordnet ist. Im Regelfall wird hier eine Gruppierung verknüpft sein, es kann jedoch auch gemeinsame Sitzungen mehrerer Gruppierungen geben. Das erste Element ist dann das federführende Gremium. TODO: Eigenschaft für federführendes Gremium ergänzen und dann Ordnung entfernen. invers zur Eigenschaft &lt;code&gt;meeting&lt;/code&gt; der Klasse &lt;code&gt;oparl:Organization&lt;/code&gt;.&lt;/p&gt; ">
<polygon fill="#ffffff" stroke="none" points="560.812,-410.036 560.812,-423.036 638.812,-423.036 638.812,-410.036 560.812,-410.036"/>
<text text-anchor="start" x="573.312" y="-414.636" font-family="Verdana" font-size="8.00" fill="#337ab7">organization</text>
</a>
</g>
<g id="a_Meeting_37"><a xlink:title="Typ: array &#160;&#160;&#160;Referenz auf Person (n:m)&lt;p&gt;Personen, die an der Sitzung teilgenommen haben. Diese Eigenschaft kann selbstverständlich erst nachdem Stattfinden der Sitzung vorkommen.&lt;/p&gt; ">
<polygon fill="#ffffff" stroke="none" points="560.812,-395.036 560.812,-408.036 638.812,-408.036 638.812,-395.036 560.812,-395.036"/>
<text text-anchor="start" x="576.812" y="-399.636" font-family="Verdana" font-size="8.00" fill="#337ab7">participant</text>
</a>
</g>
<g id="a_Meeting_38"><a xlink:title="Typ: string &#160;&#160;&#160;Referenz auf File (n:1)&lt;p&gt;Einladungsdokument zur Sitzung.&lt;/p&gt; ">
<polygon fill="#ffffff" stroke="none" points="560.812,-380.036 560.812,-393.036 638.812,-393.036 638.812,-380.036 560.812,-380.036"/>
<text text-anchor="start" x="579.812" y="-384.636" font-family="Verdana" font-size="8.00" fill="#337ab7">invitation</text>
</a>
</g>
<g id="a_Meeting_39"><a xlink:title="Typ: string &#160;&#160;&#160;Referenz auf File (n:1)&lt;p&gt;Ergebnisprotokoll zur Sitzung. Diese Eigenschaft kann selbstverständlich erst nachdem Stattfinden der Sitzung vorkommen.&lt;/p&gt; ">
<polygon fill="#ffffff" stroke="none" points="560.812,-365.036 560.812,-378.036 638.812,-378.036 638.812,-365.036 560.812,-365.036"/>
<text text-anchor="start" x="567.812" y="-369.636" font-family="Verdana" font-size="8.00" fill="#337ab7">resultsProtocol</text>
</a>
</g>
<g id="a_Meeting_40"><a xlink:title="Typ: string &#160;&#160;&#160;Referenz auf File (n:1)&lt;p&gt;Wortprotokoll zur Sitzung. Diese Eigenschaft kann selbstverständlich erst nach dem Stattfinden der Sitzung vorkommen.&lt;/p&gt; ">
<polygon fill="#ffffff" stroke="none" points="560.812,-350.036 560.812,-363.036 638.812,-363.036 638.812,-350.036 560.812,-350.036"/>
<text text-anchor="start" x="563.312" y="-354.636" font-family="Verdana" font-size="8.00" fill="#337ab7">verbatimProtocol</text>
</a>
</g>
<g id="a_Meeting_41"><a xlink:title="Typ: array &#160;&#160;&#160;Referenz auf File (n:m)&lt;p&gt;Dateianhang zur Sitzung. Hiermit sind Dateien gemeint, die üblicherweise mit der Einladung zu einer Sitzung verteilt werden, und die nicht bereits über einzelne Tagesordnungspunkte referenziert sind.&lt;/p&gt; ">
<polygon fill="#e5e2eb" stroke="none" points="560.812,-335.036 560.812,-348.036 638.812,-348.036 638.812,-335.036 560.812,-335.036"/>
<text text-anchor="start" x="573.812" y="-339.636" font-family="Verdana" font-size="8.00" fill="#337ab7">auxiliaryFile</text>
</a>
</g>
<g id="a_Meeting_42"><a xlink:title="Typ: array &#160;&#160;&#160;Referenz auf AgendaItem (1:n)&lt;p&gt;Tagesordnungspunkte der Sitzung. Die Reihenfolge ist relevant. Es kann Sitzungen ohne TOPs geben.&lt;/p&gt; ">
<polygon fill="#e5e2eb" stroke="none" points="560.812,-320.036 560.812,-333.036 638.812,-333.036 638.812,-320.036 560.812,-320.036"/>
<text text-anchor="start" x="573.812" y="-324.636" font-family="Verdana" font-size="8.00" fill="#337ab7">agendaItem</text>
</a>
</g>
<polygon fill="none" stroke="black" points="557.812,-317.536 557.812,-566.536 641.812,-566.536 641.812,-317.536 557.812,-317.536"/>
</g>
<!-- Meeting&#45;&gt;Organization -->
<g id="Meeting&#45;Organization" class="edge"><title>Meeting:organization&#45;&gt;Organization:meeting</title>
<path fill="none" stroke="#002387" d="M550.539,-416.248C521.046,-416.857 436.342,-418.608 406.854,-419.217"/>
<polygon fill="#002387" stroke="#002387" points="550.886,-419.742 560.812,-416.036 550.742,-412.743 550.886,-419.742"/>
<polygon fill="#002387" stroke="#002387" points="406.51,-415.723 396.585,-419.429 406.655,-422.722 406.51,-415.723"/>
</g>
<!-- Meeting&#45;&gt;Person -->
<g id="Meeting&#45;Person" class="edge"><title>Meeting:participant&#45;&gt;Person</title>
<path fill="none" stroke="#002387" d="M649.022,-402.914C681.46,-408.882 783.853,-427.718 848.912,-439.687"/>
<polygon fill="#002387" stroke="#002387" points="649.28,-399.403 638.812,-401.036 648.014,-406.287 649.28,-399.403"/>
<polygon fill="#002387" stroke="#002387" points="848.548,-443.179 859.017,-441.546 849.815,-436.294 848.548,-443.179"/>
</g>
<!-- AgendaItem -->
<g id="AgendaItem" class="node"><title>AgendaItem</title>
<g id="a_AgendaItem_43"><a xlink:title="&lt;p&gt;Tagesordnungspunkte sind die Bestandteile von Sitzungen (&lt;code&gt;oparl:Meeting&lt;/code&gt;). Jeder Tagesordnungspunkt widmet sich inhaltlich einem bestimmten Thema, wozu in der Regel auch die Beratung bestimmter Drucksachen gehört.&lt;/p&gt; &lt;p&gt;Die Beziehung zwischen einem Tagesordnungspunkt und einer Drucksache wird über ein Objekt vom Typ &lt;code&gt;oparl:Consultation&lt;/code&gt; hergestellt, das über die Eigenschaft &lt;code&gt;consultation&lt;/code&gt; referenziert werden kann.&lt;/p&gt; ">
<text text-anchor="start" x="421.638" y="-132.9" font-family="didot" font-size="12.00">AgendaItem</text>
</a>
</g>
<g id="a_AgendaItem_44"><a xlink:title="Typ: string &#160;&#160;&#160;Referenz auf Meeting (n:1)&lt;p&gt;Sitzung, der der Tagesordnungspunkt zugeordnet ist.&lt;/p&gt; ">
<polygon fill="#ffffff" stroke="none" points="419.138,-112 419.138,-125 495.138,-125 495.138,-112 419.138,-112"/>
<text text-anchor="start" x="439.638" y="-116.6" font-family="Verdana" font-size="8.00" fill="#337ab7">meeting</text>
</a>
</g>
<g id="a_AgendaItem_45"><a xlink:title="Typ: string&lt;p&gt;Gliederungs&#45;&quot;Nummer&quot; des Tagesordnungspunktes. Eine beliebige Zeichenkette, wie z. B. &quot;10.&quot;, &quot;10.1&quot;, &quot;C&quot;, &quot;c)&quot; o. ä. Die Reihenfolge wird nicht dadurch, sondern durch die Reihenfolge der TOPs im &lt;code&gt;agendaItem&lt;/code&gt;&#45;Attribut von &lt;code&gt;oparl:Meeting&lt;/code&gt; festgelegt.&lt;/p&gt; ">
<polygon fill="#e5e2eb" stroke="none" points="419.138,-97 419.138,-110 495.138,-110 495.138,-97 419.138,-97"/>
<text text-anchor="start" x="440.138" y="-101.6" font-family="Verdana" font-size="8.00">number</text>
</a>
</g>
<g id="a_AgendaItem_46"><a xlink:title="Typ: string&lt;p&gt;Das Thema des Tagesordnungspunktes.&lt;/p&gt; ">
<polygon fill="#ffffff" stroke="none" points="419.138,-82 419.138,-95 495.138,-95 495.138,-82 419.138,-82"/>
<text text-anchor="start" x="444.638" y="-86.6" font-family="Verdana" font-size="8.00">name</text>
</a>
</g>
<g id="a_AgendaItem_47"><a xlink:title="Typ: boolean&lt;p&gt;Kennzeichnet, ob der Tagesordnungspunkt zur Behandlung in öffentlicher Sitzung vorgesehen ist/war. Es wird ein Wahrheitswert (&lt;code&gt;true&lt;/code&gt; oder &lt;code&gt;false&lt;/code&gt;) erwartet.&lt;/p&gt; ">
<polygon fill="#ffffff" stroke="none" points="419.138,-67 419.138,-80 495.138,-80 495.138,-67 419.138,-67"/>
<text text-anchor="start" x="444.638" y="-71.6" font-family="Verdana" font-size="8.00">public</text>
</a>
</g>
<g id="a_AgendaItem_48"><a xlink:title="Typ: string &#160;&#160;&#160;Referenz auf Consultation (1:1)&lt;p&gt;Beratung, die diesem Tagesordnungspunkt zugewiesen ist.&lt;/p&gt; ">
<polygon fill="#ffffff" stroke="none" points="419.138,-52 419.138,-65 495.138,-65 495.138,-52 419.138,-52"/>
<text text-anchor="start" x="431.138" y="-56.6" font-family="Verdana" font-size="8.00" fill="#337ab7">consultation</text>
</a>
</g>
<g id="a_AgendaItem_49"><a xlink:title="Typ: string&lt;p&gt;Kategorische Information darüber, welches Ergebnis die Beratung des Tagesordnungspunktes erbracht hat, in der Bedeutung etwa &quot;Unverändert beschlossen&quot; oder &quot;Geändert beschlossen&quot;.&lt;/p&gt; ">
<polygon fill="#ffffff" stroke="none" points="419.138,-37 419.138,-50 495.138,-50 495.138,-37 419.138,-37"/>
<text text-anchor="start" x="444.638" y="-41.6" font-family="Verdana" font-size="8.00">result</text>
</a>
</g>
<g id="a_AgendaItem_50"><a xlink:title="Typ: string&lt;p&gt;Falls in diesem Tagesordnungspunkt ein Beschluss gefasst wurde, kann hier ein Text oder eine Datei angegeben werden. Das ist besonders dann in der Praxis relevant, wenn der gefasste Beschluss (z. B. durch Änderungsantrag) von der Beschlussvorlage abweicht.&lt;/p&gt; ">
<polygon fill="#e5e2eb" stroke="none" points="419.138,-22 419.138,-35 495.138,-35 495.138,-22 419.138,-22"/>
<text text-anchor="start" x="435.638" y="-26.6" font-family="Verdana" font-size="8.00">resolution</text>
</a>
</g>
<g id="a_AgendaItem_51"><a xlink:title="Typ: array &#160;&#160;&#160;Referenz auf File (n:m)&lt;p&gt;Dateianhänge zum Tagesordnungspunkt.&lt;/p&gt; ">
<polygon fill="#e5e2eb" stroke="none" points="419.138,-7 419.138,-20 495.138,-20 495.138,-7 419.138,-7"/>
<text text-anchor="start" x="431.138" y="-11.6" font-family="Verdana" font-size="8.00" fill="#337ab7">auxiliaryFile</text>
</a>
</g>
<polygon fill="none" stroke="black" points="416.138,-4 416.138,-148 498.138,-148 498.138,-4 416.138,-4"/>
</g>
<!-- AgendaItem&#45;&gt;Meeting -->
<g id="AgendaItem&#45;Meeting" class="edge"><title>AgendaItem:meeting&#45;&gt;Meeting:agendaItem</title>
<path fill="none" stroke="black" d="M495.138,-119C495.138,-119 544.749,-275.396 557.732,-316.328"/>
<polygon fill="black" stroke="black" points="554.452,-317.562 560.812,-326.036 561.124,-315.445 554.452,-317.562"/>
</g>
<!-- Consultation -->
<g id="Consultation" class="node"><title>Consultation</title>
<g id="a_Consultation_52"><a xlink:title="&lt;p&gt;Der Objekttyp &lt;code&gt;oparl:Consultation&lt;/code&gt; dient dazu, die Beratung einer Drucksache (&lt;a href=&quot;#oparl_paper&quot;&gt;&lt;code&gt;oparl:Paper&lt;/code&gt;&lt;/a&gt;) in einer Sitzung abzubilden. Dabei ist es nicht entscheidend, ob diese Beratung in der Vergangenheit stattgefunden hat oder diese für die Zukunft geplant ist.&lt;/p&gt; &lt;p&gt;Die Gesamtheit aller Objekte des Typs &lt;code&gt;oparl:Consultation&lt;/code&gt; zu einer bestimmten Drucksache bildet das ab, was in der Praxis als &quot;Beratungsfolge&quot; der Drucksache bezeichnet wird.&lt;/p&gt; ">
<text text-anchor="start" x="127.048" y="-189.953" font-family="didot" font-size="12.00">Consultation</text>
</a>
</g>
<g id="a_Consultation_53"><a xlink:title="Typ: string &#160;&#160;&#160;Referenz auf Paper (n:1)&lt;p&gt;Drucksache, die beraten wird.&lt;/p&gt; ">
<polygon fill="#ffffff" stroke="none" points="124.548,-169.053 124.548,-182.053 202.548,-182.053 202.548,-169.053 124.548,-169.053"/>
<text text-anchor="start" x="151.048" y="-173.653" font-family="Verdana" font-size="8.00" fill="#337ab7">paper</text>
</a>
</g>
<g id="a_Consultation_54"><a xlink:title="Typ: string &#160;&#160;&#160;Referenz auf AgendaItem (n:1)&lt;p&gt;Tagesordnungspunkt, unter dem die Drucksache beraten wird.&lt;/p&gt; ">
<polygon fill="#ffffff" stroke="none" points="124.548,-154.053 124.548,-167.053 202.548,-167.053 202.548,-154.053 124.548,-154.053"/>
<text text-anchor="start" x="137.548" y="-158.653" font-family="Verdana" font-size="8.00" fill="#337ab7">agendaItem</text>
</a>
</g>
<g id="a_Consultation_55"><a xlink:title="Typ: array &#160;&#160;&#160;Referenz auf Organization (n:m)&lt;p&gt;Gremium, dem die Sitzung zugewiesen ist, zu welcher der zuvor genannte Tagesordnungspunkt gehört. Hier kann auch eine mit Liste von Gremien angegeben werden (die verschiedenen &lt;code&gt;oparl:Body&lt;/code&gt; und &lt;code&gt;oparl:System&lt;/code&gt; angehören können). Die Liste ist dann geordnet. Das erste Gremium der Liste ist federführend.&lt;/p&gt; ">
<polygon fill="#ffffff" stroke="none" points="124.548,-139.053 124.548,-152.053 202.548,-152.053 202.548,-139.053 124.548,-139.053"/>
<text text-anchor="start" x="137.048" y="-143.653" font-family="Verdana" font-size="8.00" fill="#337ab7">organization</text>
</a>
</g>
<g id="a_Consultation_56"><a xlink:title="Typ: boolean&lt;p&gt;Drückt aus, ob bei dieser Beratung ein Beschluss zu der Drucksache gefasst wird (&lt;code&gt;true&lt;/code&gt;) wird oder nicht (&lt;code&gt;false&lt;/code&gt;).&lt;/p&gt; ">
<polygon fill="#e5e2eb" stroke="none" points="124.548,-124.053 124.548,-137.053 202.548,-137.053 202.548,-124.053 124.548,-124.053"/>
<text text-anchor="start" x="136.048" y="-128.653" font-family="Verdana" font-size="8.00">authoritative</text>
</a>
</g>
<g id="a_Consultation_57"><a xlink:title="Typ: string&lt;p&gt;Rolle oder Funktion der Beratung. Zum Beispiel Anhörung, Entscheidung, Kenntnisnahme, Vorberatung usw.&lt;/p&gt; ">
<polygon fill="#e5e2eb" stroke="none" points="124.548,-109.053 124.548,-122.053 202.548,-122.053 202.548,-109.053 124.548,-109.053"/>
<text text-anchor="start" x="155.048" y="-113.653" font-family="Verdana" font-size="8.00">role</text>
</a>
</g>
<polygon fill="none" stroke="black" points="121.548,-106.553 121.548,-205.553 205.548,-205.553 205.548,-106.553 121.548,-106.553"/>
</g>
<!-- AgendaItem&#45;&gt;Consultation -->
<g id="AgendaItem&#45;Consultation" class="edge"><title>AgendaItem:consultation&#45;&gt;Consultation:agendaItem</title>
<path fill="none" stroke="black" d="M419.138,-58C419.138,-58 252.571,-137.253 211.579,-156.756"/>
<polygon fill="black" stroke="black" points="210.075,-153.596 202.548,-161.053 213.082,-159.917 210.075,-153.596"/>
</g>
<!-- Consultation&#45;&gt;Organization -->
<g id="Consultation&#45;Organization" class="edge"><title>Consultation:organization&#45;&gt;Organization</title>
<path fill="none" stroke="#002387" d="M207.702,-153.676C221.657,-177.025 261.461,-243.622 296.118,-301.606"/>
<polygon fill="#002387" stroke="#002387" points="210.683,-151.841 202.548,-145.053 204.674,-155.433 210.683,-151.841"/>
<polygon fill="#002387" stroke="#002387" points="293.275,-303.673 301.41,-310.461 299.284,-300.082 293.275,-303.673"/>
</g>
<!-- Paper -->
<g id="Paper" class="node"><title>Paper</title>
<g id="a_Paper_58"><a xlink:title="&lt;p&gt;Dieser Objekttyp dient der Abbildung von Drucksachen in der parlamentarischen Arbeit, wie zum Beispiel Anfragen, Anträgen und Beschlussvorlagen.&lt;/p&gt; &lt;p&gt;Drucksachen werden in Form einer Beratung (oparl:Consultation) im Rahmen eines Tagesordnungspunkts (oparl:AgendaItem) einer Sitzung (oparl:Meeting) behandelt.&lt;/p&gt; &lt;p&gt;Drucksachen spielen in der schriftlichen wie mündlichen Kommunikation eine besondere Rolle, da in vielen Texten auf bestimmte Drucksachen Bezug genommen wird. Hierbei kommen in parlamentarischen Informationssystemen unveränderliche Kennungen der Drucksachen zum Einsatz.&lt;/p&gt; ">
<text text-anchor="start" x="47" y="-515.093" font-family="didot" font-size="12.00">Paper</text>
</a>
</g>
<g id="a_Paper_59"><a xlink:title="Typ: string &#160;&#160;&#160;Referenz auf Body (n:1)&lt;p&gt;Körperschaft, zu der die Drucksache gehört.&lt;/p&gt; ">
<polygon fill="#ffffff" stroke="none" points="25.5,-494.193 25.5,-507.193 102.5,-507.193 102.5,-494.193 25.5,-494.193"/>
<text text-anchor="start" x="53" y="-498.793" font-family="Verdana" font-size="8.00" fill="#337ab7">body</text>
</a>
</g>
<g id="a_Paper_60"><a xlink:title="Typ: string&lt;p&gt;Titel der Drucksache.&lt;/p&gt; ">
<polygon fill="#ffffff" stroke="none" points="25.5,-479.193 25.5,-492.193 102.5,-492.193 102.5,-479.193 25.5,-479.193"/>
<text text-anchor="start" x="51.5" y="-483.793" font-family="Verdana" font-size="8.00">name</text>
</a>
</g>
<g id="a_Paper_61"><a xlink:title="Typ: string&lt;p&gt;Kennung bzw. Aktenzeichen der Drucksache, mit der sie in der parlamentarischen Arbeit eindeutig referenziert werden kann.&lt;/p&gt; ">
<polygon fill="#e5e2eb" stroke="none" points="25.5,-464.193 25.5,-477.193 102.5,-477.193 102.5,-464.193 25.5,-464.193"/>
<text text-anchor="start" x="43" y="-468.793" font-family="Verdana" font-size="8.00">reference</text>
</a>
</g>
<g id="a_Paper_62"><a xlink:title="Typ: string&lt;p&gt;Veröffentlichungsdatum der Drucksache.&lt;/p&gt; ">
<polygon fill="#ffffff" stroke="none" points="25.5,-449.193 25.5,-462.193 102.5,-462.193 102.5,-449.193 25.5,-449.193"/>
<text text-anchor="start" x="33.5" y="-453.793" font-family="Verdana" font-size="8.00">publishedDate</text>
</a>
</g>
<g id="a_Paper_63"><a xlink:title="Typ: string&lt;p&gt;Art der Drucksache, z. B. Beantwortung einer Anfrage.&lt;/p&gt; ">
<polygon fill="#ffffff" stroke="none" points="25.5,-434.193 25.5,-447.193 102.5,-447.193 102.5,-434.193 25.5,-434.193"/>
<text text-anchor="start" x="41" y="-438.793" font-family="Verdana" font-size="8.00">paperType</text>
</a>
</g>
<g id="a_Paper_64"><a xlink:title="Typ: array &#160;&#160;&#160;Referenz auf Paper (1:n)&lt;p&gt;Inhaltlich verwandte Drucksachen.&lt;/p&gt; ">
<polygon fill="#e5e2eb" stroke="none" points="25.5,-419.193 25.5,-432.193 102.5,-432.193 102.5,-419.193 25.5,-419.193"/>
<text text-anchor="start" x="36.5" y="-423.793" font-family="Verdana" font-size="8.00" fill="#337ab7">relatedPaper</text>
</a>
</g>
<g id="a_Paper_65"><a xlink:title="Typ: string &#160;&#160;&#160;Referenz auf File (n:1)&lt;p&gt;Die Haupt&#45;Datei zu dieser Drucksache. Beispiel: Die Drucksache repräsentiert eine Beschlussvorlage und die Haupt&#45;Datei enthält den Text der Beschlussvorlage.&lt;/p&gt; ">
<polygon fill="#ffffff" stroke="none" points="25.5,-404.193 25.5,-417.193 102.5,-417.193 102.5,-404.193 25.5,-404.193"/>
<text text-anchor="start" x="46" y="-408.793" font-family="Verdana" font-size="8.00" fill="#337ab7">mainFile</text>
</a>
</g>
<g id="a_Paper_66"><a xlink:title="Typ: array &#160;&#160;&#160;Referenz auf File (n:m)&lt;p&gt;Anhänge zur Drucksache. Diese sind, in Abgrenzung zur Haupt&#45;Datei (&lt;code&gt;mainFile&lt;/code&gt;), untergeordnet und es kann beliebig viele davon geben.&lt;/p&gt; ">
<polygon fill="#e5e2eb" stroke="none" points="25.5,-389.193 25.5,-402.193 102.5,-402.193 102.5,-389.193 25.5,-389.193"/>
<text text-anchor="start" x="38" y="-393.793" font-family="Verdana" font-size="8.00" fill="#337ab7">auxiliaryFile</text>
</a>
</g>
<g id="a_Paper_67"><a xlink:title="Typ: array &#160;&#160;&#160;Referenz auf Location (n:m)&lt;p&gt;Sofern die Drucksache einen inhaltlichen Ortsbezug hat, beschreibt diese Eigenschaft den Ort in Textform und/oder in Form von Geodaten.&lt;/p&gt; ">
<polygon fill="#e5e2eb" stroke="none" points="25.5,-374.193 25.5,-387.193 102.5,-387.193 102.5,-374.193 25.5,-374.193"/>
<text text-anchor="start" x="47" y="-378.793" font-family="Verdana" font-size="8.00" fill="#337ab7">location</text>
</a>
</g>
<g id="a_Paper_68"><a xlink:title="Typ: array&lt;p&gt;Urheber der Drucksache, kann eine oder mehrere Person(en) bzw. Gruppierung(en) sein.&lt;/p&gt; ">
<polygon fill="#ffffff" stroke="none" points="25.5,-359.193 25.5,-372.193 102.5,-372.193 102.5,-359.193 25.5,-359.193"/>
<text text-anchor="start" x="43" y="-363.793" font-family="Verdana" font-size="8.00">originator</text>
</a>
</g>
<g id="a_Paper_69"><a xlink:title="Typ: array &#160;&#160;&#160;Referenz auf Consultation (n:m)&lt;p&gt;Beratungen der Drucksache.&lt;/p&gt; ">
<polygon fill="#e5e2eb" stroke="none" points="25.5,-344.193 25.5,-357.193 102.5,-357.193 102.5,-344.193 25.5,-344.193"/>
<text text-anchor="start" x="38" y="-348.793" font-family="Verdana" font-size="8.00" fill="#337ab7">consultation</text>
</a>
</g>
<g id="a_Paper_70"><a xlink:title="Typ: array &#160;&#160;&#160;Referenz auf Organization (n:m)&lt;p&gt;Federführung. Amt oder Abteilung, für die Inhalte oder Beantwortung der Drucksache verantwortlich.&lt;/p&gt; ">
<polygon fill="#e5e2eb" stroke="none" points="25.5,-329.193 25.5,-342.193 102.5,-342.193 102.5,-329.193 25.5,-329.193"/>
<text text-anchor="start" x="28" y="-333.793" font-family="Verdana" font-size="8.00" fill="#337ab7">underDirectionof</text>
</a>
</g>
<polygon fill="none" stroke="black" points="22,-326.193 22,-530.193 105,-530.193 105,-326.193 22,-326.193"/>
</g>
<!-- Consultation&#45;&gt;Paper -->
<g id="Consultation&#45;Paper" class="edge"><title>Consultation:paper&#45;&gt;Paper:consultation</title>
<path fill="none" stroke="black" d="M124.548,-176.053C124.548,-176.053 108.486,-302.912 103.781,-340.078"/>
<polygon fill="black" stroke="black" points="100.284,-339.832 102.5,-350.193 107.228,-340.712 100.284,-339.832"/>
</g>
<!-- Paper&#45;&gt;Organization -->
<g id="Paper&#45;Organization" class="edge"><title>Paper:underDirectionof&#45;&gt;Organization</title>
<path fill="none" stroke="#002387" d="M112.244,-337.676C141.42,-345.11 229.865,-367.648 291.417,-383.333"/>
<polygon fill="#002387" stroke="#002387" points="113.055,-334.271 102.5,-335.193 111.326,-341.054 113.055,-334.271"/>
<polygon fill="#002387" stroke="#002387" points="290.878,-386.807 301.432,-385.885 292.606,-380.024 290.878,-386.807"/>
</g>
<!-- Paper&#45;&gt;Paper -->
<g id="Paper&#45;Paper" class="edge"><title>Paper:relatedPaper&#45;&gt;Paper</title>
<path fill="none" stroke="black" d="M25.5,-425.193C9.33333,-418.193 0,-418.193 0,-426.693 0,-428.253 1.42692,-429.527 3.88779,-430.524"/>
<polygon fill="black" stroke="black" points="3.46721,-434.014 13.9793,-432.692 4.93759,-427.17 3.46721,-434.014"/>
</g>
<!-- Membership -->
<g id="Membership" class="node"><title>Membership</title>
<g id="a_Membership_71"><a xlink:title="&lt;p&gt;Über Objekte diesen Typs wird die Mitgliedschaft von Personen in Gruppierungen dargestellt. Diese Mitgliedschaften können zeitlich begrenzt sein. Zudem kann abgebildet werden, dass eine Person eine bestimmte Rolle bzw. Position innerhalb der Gruppierung inne hat, beispielsweise den Vorsitz einer Fraktion.&lt;/p&gt; ">
<text text-anchor="start" x="663.813" y="-295.459" font-family="didot" font-size="12.00">Membership</text>
</a>
</g>
<g id="a_Membership_72"><a xlink:title="Typ: string &#160;&#160;&#160;Referenz auf Person (n:1)&lt;p&gt;Die betreffende Person, die Mitglied einer Gruppierung ist oder war.&lt;/p&gt; ">
<polygon fill="#ffffff" stroke="none" points="661.313,-274.559 661.313,-287.559 738.313,-287.559 738.313,-274.559 661.313,-274.559"/>
<text text-anchor="start" x="684.813" y="-279.159" font-family="Verdana" font-size="8.00" fill="#337ab7">person</text>
</a>
</g>
<g id="a_Membership_73"><a xlink:title="Typ: string &#160;&#160;&#160;Referenz auf Organization (n:1)&lt;p&gt;Die Gruppierung, in der die Person Mitglied ist oder war.&lt;/p&gt; ">
<polygon fill="#ffffff" stroke="none" points="661.313,-259.559 661.313,-272.559 738.313,-272.559 738.313,-259.559 661.313,-259.559"/>
<text text-anchor="start" x="673.313" y="-264.159" font-family="Verdana" font-size="8.00" fill="#337ab7">organization</text>
</a>
</g>
<g id="a_Membership_74"><a xlink:title="Typ: string&lt;p&gt;Rolle der Person für die Gruppierung. Kann genutzt werden, um verschiedene Arten von Mitgliedschaften zum Beispiel in Gremien zu unterscheiden. Der String SOLL in dieser Form sowohl die männliche als auch die weibliche Rollenbezeichnung enthalten: &lt;code&gt;&quot;Vorsitzender | Vorsitzende&quot;&lt;/code&gt;.&lt;/p&gt; ">
<polygon fill="#e5e2eb" stroke="none" points="661.313,-244.559 661.313,-257.559 738.313,-257.559 738.313,-244.559 661.313,-244.559"/>
<text text-anchor="start" x="691.313" y="-249.159" font-family="Verdana" font-size="8.00">role</text>
</a>
</g>
<g id="a_Membership_75"><a xlink:title="Typ: string &#160;&#160;&#160;Referenz auf Organization (n:1)&lt;p&gt;Entsendende Gruppierung, Fraktion, fraktionsloses oder externes Gremium. Es kann auch Mitglieder geben, die von keiner anderen Gruppierung entsendet wurden (z. B. fraktionslose Abgeordnete). Da eine solche Person sich gewissermaßen selbst &quot;entsendet&quot; hat, SOLL in dem Fall hier der selbe Wert angegeben werden wie bei der Eigenschaft &lt;code&gt;person&lt;/code&gt;.&lt;a href=&quot;#fn1&quot; class=&quot;footnoteRef&quot; id=&quot;fnref1&quot;&gt;&lt;sup&gt;1&lt;/sup&gt;&lt;/a&gt;&lt;/p&gt; &lt;div class=&quot;footnotes&quot;&gt; &lt;hr /&gt; &lt;ol&gt; &lt;li id=&quot;fn1&quot;&gt;&lt;p&gt;Dies entspricht &lt;code&gt;opengov:onBehalfOf&lt;/code&gt; in Popolo. &lt;a href=&quot;http://popoloproject.com/specs/membership.html&quot; class=&quot;uri&quot;&gt;http://popoloproject.com/specs/membership.html&lt;/a&gt;&lt;a href=&quot;#fnref1&quot;&gt;↩&lt;/a&gt;&lt;/p&gt;&lt;/li&gt; &lt;/ol&gt; &lt;/div&gt; ">
<polygon fill="#e5e2eb" stroke="none" points="661.313,-229.559 661.313,-242.559 738.313,-242.559 738.313,-229.559 661.313,-229.559"/>
<text text-anchor="start" x="675.813" y="-234.159" font-family="Verdana" font-size="8.00" fill="#337ab7">onBehalfOf</text>
</a>
</g>
<g id="a_Membership_76"><a xlink:title="Typ: boolean&lt;p&gt;Gibt an, ob die Person in der Gruppierung stimmberechtigtes Mitglied ist.&lt;/p&gt; ">
<polygon fill="#e5e2eb" stroke="none" points="661.313,-214.559 661.313,-227.559 738.313,-227.559 738.313,-214.559 661.313,-214.559"/>
<text text-anchor="start" x="675.313" y="-219.159" font-family="Verdana" font-size="8.00">votingRight</text>
</a>
</g>
<g id="a_Membership_77"><a xlink:title="Typ: string&lt;p&gt;Anfangszeitpunkt der Mitgliedschaft.&lt;a href=&quot;#fn1&quot; class=&quot;footnoteRef&quot; id=&quot;fnref1&quot;&gt;&lt;sup&gt;1&lt;/sup&gt;&lt;/a&gt;&lt;/p&gt; &lt;div class=&quot;footnotes&quot;&gt; &lt;hr /&gt; &lt;ol&gt; &lt;li id=&quot;fn1&quot;&gt;&lt;p&gt;Abgeleitet von: &lt;code&gt;schema:validFrom&lt;/code&gt; in Popolo. &lt;a href=&quot;http://popoloproject.com/specs/membership.html&quot; class=&quot;uri&quot;&gt;http://popoloproject.com/specs/membership.html&lt;/a&gt;&lt;a href=&quot;#fnref1&quot;&gt;↩&lt;/a&gt;&lt;/p&gt;&lt;/li&gt; &lt;/ol&gt; &lt;/div&gt; ">
<polygon fill="#e5e2eb" stroke="none" points="661.313,-199.559 661.313,-212.559 738.313,-212.559 738.313,-199.559 661.313,-199.559"/>
<text text-anchor="start" x="679.813" y="-204.159" font-family="Verdana" font-size="8.00">startDate</text>
</a>
</g>
<g id="a_Membership_78"><a xlink:title="Typ: string&lt;p&gt;Der Endzeitpunkt der Mitgliedschaft.&lt;a href=&quot;#fn1&quot; class=&quot;footnoteRef&quot; id=&quot;fnref1&quot;&gt;&lt;sup&gt;1&lt;/sup&gt;&lt;/a&gt;&lt;/p&gt; &lt;div class=&quot;footnotes&quot;&gt; &lt;hr /&gt; &lt;ol&gt; &lt;li id=&quot;fn1&quot;&gt;&lt;p&gt;Abgeleitet von: &lt;code&gt;schema:validThrough&lt;/code&gt; in Popolo. &lt;a href=&quot;http://popoloproject.com/specs/membership.html&quot; class=&quot;uri&quot;&gt;http://popoloproject.com/specs/membership.html&lt;/a&gt;&lt;a href=&quot;#fnref1&quot;&gt;↩&lt;/a&gt;&lt;/p&gt;&lt;/li&gt; &lt;/ol&gt; &lt;/div&gt; ">
<polygon fill="#e5e2eb" stroke="none" points="661.313,-184.559 661.313,-197.559 738.313,-197.559 738.313,-184.559 661.313,-184.559"/>
<text text-anchor="start" x="681.313" y="-189.159" font-family="Verdana" font-size="8.00">endDate</text>
</a>
</g>
<polygon fill="none" stroke="black" points="657.813,-182.059 657.813,-311.059 740.813,-311.059 740.813,-182.059 657.813,-182.059"/>
</g>
<!-- Membership&#45;&gt;Organization -->
<g id="Membership&#45;Organization" class="edge"><title>Membership:organization&#45;&gt;Organization:membership</title>
<path fill="none" stroke="black" d="M661.313,-266.559C661.313,-266.559 596.117,-286.194 549.812,-313.535 488.829,-349.542 425.291,-407.335 404.016,-427.342"/>
<polygon fill="black" stroke="black" points="401.406,-424.995 396.585,-434.429 406.237,-430.06 401.406,-424.995"/>
</g>
<!-- Membership&#45;&gt;Organization -->
<g id="Membership&#45;Organization" class="edge"><title>Membership:onBehalfOf&#45;&gt;Organization</title>
<path fill="none" stroke="black" d="M661.313,-235.559C661.313,-235.559 506.284,-318.384 416.657,-366.267"/>
<polygon fill="black" stroke="black" points="414.834,-363.273 407.663,-371.072 418.132,-369.447 414.834,-363.273"/>
</g>
<!-- Membership&#45;&gt;Person -->
<g id="Membership&#45;Person" class="edge"><title>Membership:person&#45;&gt;Person:membership</title>
<path fill="none" stroke="black" d="M738.313,-281.559C738.313,-281.559 830.402,-323.811 860.618,-337.674"/>
<polygon fill="black" stroke="black" points="859.547,-341.034 870.096,-342.023 862.466,-334.671 859.547,-341.034"/>
</g>
<!-- LegislativeTerm -->
<g id="LegislativeTerm" class="node"><title>LegislativeTerm</title>
<g id="a_LegislativeTerm_79"><a xlink:title="&lt;p&gt;Dieser Objekttyp dient der Beschreibung einer Wahlperiode.&lt;/p&gt; ">
<text text-anchor="start" x="594" y="-72.9" font-family="didot" font-size="12.00">LegislativeTerm</text>
</a>
</g>
<g id="a_LegislativeTerm_80"><a xlink:title="Typ: string&lt;p&gt;Die Körperschaft, der diese Wahlperiode zugeordnet ist.&lt;/p&gt; ">
<polygon fill="#ffffff" stroke="none" points="591.5,-52 591.5,-65 684.5,-65 684.5,-52 591.5,-52"/>
<text text-anchor="start" x="627" y="-56.6" font-family="Verdana" font-size="8.00">body</text>
</a>
</g>
<g id="a_LegislativeTerm_81"><a xlink:title="Typ: string&lt;p&gt;Nutzerfreundliche Bezeichnung der Wahlperiode.&lt;/p&gt; ">
<polygon fill="#ffffff" stroke="none" points="591.5,-37 591.5,-50 684.5,-50 684.5,-37 591.5,-37"/>
<text text-anchor="start" x="625.5" y="-41.6" font-family="Verdana" font-size="8.00">name</text>
</a>
</g>
<g id="a_LegislativeTerm_82"><a xlink:title="Typ: string&lt;p&gt;Der erste Tag der Wahlperiode.&lt;/p&gt; ">
<polygon fill="#ffffff" stroke="none" points="591.5,-22 591.5,-35 684.5,-35 684.5,-22 591.5,-22"/>
<text text-anchor="start" x="618" y="-26.6" font-family="Verdana" font-size="8.00">startDate</text>
</a>
</g>
<g id="a_LegislativeTerm_83"><a xlink:title="Typ: string&lt;p&gt;Der letzte Tag der Wahlperiode.&lt;/p&gt; ">
<polygon fill="#ffffff" stroke="none" points="591.5,-7 591.5,-20 684.5,-20 684.5,-7 591.5,-7"/>
<text text-anchor="start" x="619.5" y="-11.6" font-family="Verdana" font-size="8.00">endDate</text>
</a>
</g>
<polygon fill="none" stroke="black" points="588,-4 588,-88 687,-88 687,-4 588,-4"/>
</g>
</g>
</svg>
